# xmcd CD database file generated by OrangeCD 5.2
#
# Track frame offsets:
#	225
#	13175
#	31380
#	44917
#	61587
#	71535
#	88660
#	98800
#	117960
#	130680
#	144530
#	156835
#
# Disc length: 2283 seconds
#
# Revision: 0
# Processed by: cddbd v1.5.1PL0 Copyright (c) Steve Scherf et al.
# Submitted via: OrangeCD 5.2
#
DISCID=a308e80c
DTITLE=Various Artist - Blues Best
DYEAR=1988
DGENRE=Blues Compilation
TTITLE0=B.B. King - Rock Me Baby
TTITLE1=Big Joe Turner - Night Time Is The Right Time
TTITLE2=Lowell Fulson - Every Day I Have The Blues
TTITLE3=Jimmy Witherspoon - Stormy Monday
TTITLE4=Tina Turner - If I Can't Be First
TTITLE5=Z. Z. Hill - What I'm Living For?
TTITLE6=Jesse Belvin - I'll Mess You Up
TTITLE7=Big Joe Turner - Good Moring Blues
TTITLE8=Lowell Fulson - Feel So Bad
TTITLE9=Z. Z. Hill - When Something Is Wrong Witn My Baby
TTITLE10=Jimmy Witherspoon - Jelly Jelly
TTITLE11=B.B. King - I've Got A Right To Love My Baby
EXTD=
EXTT0=
EXTT1=
EXTT2=
EXTT3=
EXTT4=
EXTT5=
EXTT6=
EXTT7=
EXTT8=
EXTT9=
EXTT10=
EXTT11=
PLAYORDER=
